<svg width="30" height="24" viewBox="0 0 30 24" fill="none" xmlns="http://www.w3.org/2000/svg">
<path d="M5.09076 0.717178H24.9286C26.0823 0.717178 27.189 1.1759 28.0048 1.99159C28.8206 2.8074 29.2792 3.91404 29.2792 5.06776V18.641C29.2792 19.7948 28.8207 20.9013 28.0048 21.7172C27.189 22.533 26.0825 22.9916 24.9286 22.9916H5.09076C3.93703 22.9915 2.8304 22.533 2.01459 21.7172C1.1989 20.9013 0.740173 19.7947 0.740173 18.641V5.06776C0.740233 3.91404 1.19878 2.8074 2.01459 1.99159C2.8304 1.17578 3.93703 0.717238 5.09076 0.717178ZM2.13275 18.641C2.13275 19.4255 2.44435 20.178 2.99896 20.7328C3.5537 21.2875 4.30625 21.5999 5.09076 21.6H24.9286C25.7132 21.6 26.4657 21.2876 27.0204 20.7328C27.5752 20.178 27.8876 19.4256 27.8876 18.641V8.3744H2.13275V18.641ZM20.2304 15.3353H23.3632C23.5477 15.3355 23.725 15.408 23.8554 15.5385C23.9858 15.6689 24.0584 15.8462 24.0585 16.0307C24.0585 16.2151 23.9857 16.3923 23.8554 16.5228C23.725 16.6533 23.5477 16.7268 23.3632 16.7269H20.2304C20.0458 16.7269 19.8687 16.6534 19.7382 16.5228C19.6078 16.3923 19.5341 16.2151 19.5341 16.0307C19.5342 15.8462 19.6078 15.6689 19.7382 15.5385C19.8687 15.4081 20.0459 15.3354 20.2304 15.3353ZM5.09076 2.10976C4.30625 2.10982 3.5537 2.42123 2.99896 2.97597C2.44423 3.5307 2.13281 4.28326 2.13275 5.06776V6.98183H27.8876V5.06776C27.8876 4.28326 27.5752 3.5307 27.0204 2.97597C26.4657 2.42135 25.7131 2.10976 24.9286 2.10976H5.09076Z" fill="#4CAF4F" stroke="#4CAF4F" stroke-width="0.696069"/>
</svg>
