<svg width="15" height="11" viewBox="0 0 15 11" fill="none" xmlns="http://www.w3.org/2000/svg">
<path d="M7.84237 6.18822L5.61717 9.99925L3.39199 6.18822H7.84237ZM8.43849 5.8476H2.79346L5.61717 10.6733L8.43849 5.8476Z" fill="white"/>
<path d="M11.7112 1.44813L13.9364 5.25916H9.48598L11.7112 1.44813ZM11.7112 0.766907L8.88745 5.59263H14.5349L11.7112 0.766907Z" fill="white"/>
<path d="M0.0878906 0.766907L2.45548 5.03527L5.04268 0.874086L0.0878906 0.766907Z" fill="#4CAF4F"/>
<path d="M5.61716 1.14081L8.1006 5.38535H3.12891L5.61716 1.14081Z" fill="#4CAF4F"/>
<path d="M8.74009 6.31207L11.2259 10.6733H6.13599L8.66285 6.31207H8.74009Z" fill="#4CAF4F"/>
<path d="M9.27832 6.04767L11.7111 10.3422L14.1776 6.04767H9.27832Z" fill="#4CAF4F"/>
</svg>
